<svg width="0" height="0" class="hidden">
  <symbol fill="none" xmlns="http://www.w3.org/2000/svg" viewBox="0 0 56 56" id="codepen">
    <path d="M28 1L55 18.55V37.45L28 55L1 37.45V18.55L28 1Z" stroke="#FF0000" stroke-width="1.5" stroke-linecap="round" stroke-linejoin="round"></path>
    <path d="M28 55.0002V37.4502" stroke="#FF0000" stroke-width="1.5" stroke-linecap="round" stroke-linejoin="round"></path>
    <path d="M55 18.5498L28 37.4498L1 18.5498" stroke="#FF0000" stroke-width="1.5" stroke-linecap="round" stroke-linejoin="round"></path>
    <path d="M1 37.4498L28 18.5498L55 37.4498" stroke="#FF0000" stroke-width="1.5" stroke-linecap="round" stroke-linejoin="round"></path>
    <path d="M28 1V18.55" stroke="#FF0000" stroke-width="1.5" stroke-linecap="round" stroke-linejoin="round"></path>
  </symbol>
  <symbol fill="none" xmlns="http://www.w3.org/2000/svg" viewBox="0 0 53 59" id="cube">
    <path d="M18.3753 52.0693V53.0377L17.5176 52.608" stroke="#FF0000" stroke-width="1.5" stroke-linecap="round" stroke-linejoin="round"></path>
    <path d="M15.8302 51.7581L3.16797 45.3877" stroke="#FF0000" stroke-width="1.5" stroke-linecap="round" stroke-linejoin="round" stroke-dasharray="1 3"></path>
    <path d="M2.32252 44.9605L1.46484 44.5308V43.5625" stroke="#FF0000" stroke-width="1.5" stroke-linecap="round" stroke-linejoin="round"></path>
    <path d="M1.46484 41.6043V15.1885" stroke="#FF0000" stroke-width="1.5" stroke-linecap="round" stroke-linejoin="round" stroke-dasharray="6.28 6.28"></path>
    <path d="M1.46484 14.2076V13.2393L2.32252 13.6689" stroke="#FF0000" stroke-width="1.5" stroke-linecap="round" stroke-linejoin="round"></path>
    <path d="M4.00977 14.5195L16.672 20.89" stroke="#FF0000" stroke-width="1.5" stroke-linecap="round" stroke-linejoin="round" stroke-dasharray="1 3"></path>
    <path d="M17.5176 21.3164L18.3753 21.7461V22.7175" stroke="#FF0000" stroke-width="1.5" stroke-linecap="round" stroke-linejoin="round"></path>
    <path d="M18.375 24.6719V51.0908" stroke="#FF0000" stroke-width="1.5" stroke-linecap="round" stroke-linejoin="round" stroke-dasharray="1 3"></path>
    <path d="M26.4677 32.2927L1.44141 44.5323V13.2406L26.4677 1.00098V32.2927Z" stroke="#FF0000" stroke-width="1.5" stroke-miterlimit="10" stroke-linecap="round" stroke-linejoin="round"></path>
    <path d="M51.4931 44.5314V13.2396L26.4668 1V32.2918L32.8886 35.4334" stroke="#FF0000" stroke-width="1.5" stroke-miterlimit="10" stroke-linecap="round" stroke-linejoin="round"></path>
    <path d="M24.5254 57.555L49.5517 45.3154" stroke="#FF0000" stroke-width="1.5" stroke-miterlimit="10" stroke-linecap="round" stroke-linejoin="round" stroke-dasharray="1 3"></path>
    <path d="M18.377 52.9287L31.3589 46.5801" stroke="#FF0000" stroke-width="1.5" stroke-miterlimit="10" stroke-linecap="round" stroke-linejoin="round" stroke-dasharray="1 3"></path>
    <path d="M43.4043 25.9117V11.7666" stroke="#FF0000" stroke-width="1.5" stroke-miterlimit="10" stroke-linecap="round" stroke-linejoin="round" stroke-dasharray="1 3"></path>
    <path d="M32.8887 45.0143L40.5586 48.763V36.0564L32.8887 32.3076V45.0143Z" stroke="#FF0000" stroke-width="1.5" stroke-miterlimit="10" stroke-linecap="round" stroke-linejoin="round"></path>
    <path d="M32.8887 32.3071L43.4021 27.8516L51.4932 31.3886L40.5586 36.0559" stroke="#FF0000" stroke-width="1.5" stroke-miterlimit="10" stroke-linecap="round" stroke-linejoin="round"></path>
  </symbol>
  <symbol fill="none" xmlns="http://www.w3.org/2000/svg" viewBox="0 0 56 56" id="layers">
    <path d="M28.0835 1L1 14.5417L28.0835 28.0835L55.167 14.5417L28.0835 1Z" stroke="#FF0000" stroke-width="1.5" stroke-linecap="round" stroke-linejoin="round"></path>
    <path d="M1 41.625L28.0835 55.1668L55.167 41.625" stroke="#FF0000" stroke-width="1.5" stroke-linecap="round" stroke-linejoin="round"></path>
    <path d="M1 28.084L28.0835 41.6257L55.167 28.084" stroke="#FF0000" stroke-width="1.5" stroke-linecap="round" stroke-linejoin="round"></path>
  </symbol>
  <symbol fill="none" xmlns="http://www.w3.org/2000/svg" viewBox="0 0 55 45" id="truck">
    <path d="M36.8333 1H1V32.0556H36.8333V1Z" stroke="#FF0000" stroke-width="1.5" stroke-linecap="round" stroke-linejoin="round"></path>
    <path d="M36.834 12.9443H46.3895L53.5562 20.111V32.0554H36.834V12.9443Z" stroke="#FF0000" stroke-width="1.5" stroke-linecap="round" stroke-linejoin="round"></path>
    <path d="M11.7496 44.0001C15.0479 44.0001 17.7218 41.3263 17.7218 38.0279C17.7218 34.7295 15.0479 32.0557 11.7496 32.0557C8.4512 32.0557 5.77734 34.7295 5.77734 38.0279C5.77734 41.3263 8.4512 44.0001 11.7496 44.0001Z" stroke="#FF0000" stroke-width="1.5" stroke-linecap="round" stroke-linejoin="round"></path>
    <path d="M42.8062 44.0001C46.1046 44.0001 48.7784 41.3263 48.7784 38.0279C48.7784 34.7295 46.1046 32.0557 42.8062 32.0557C39.5078 32.0557 36.834 34.7295 36.834 38.0279C36.834 41.3263 39.5078 44.0001 42.8062 44.0001Z" stroke="#FF0000" stroke-width="1.5" stroke-linecap="round" stroke-linejoin="round"></path>
  </symbol>
</svg>