<svg width="55" height="45" viewBox="0 0 55 45" fill="none" xmlns="http://www.w3.org/2000/svg">
<path d="M36.8333 1H1V32.0556H36.8333V1Z" stroke="#FF0000" stroke-width="1.5" stroke-linecap="round" stroke-linejoin="round"/>
<path d="M36.834 12.9443H46.3895L53.5562 20.111V32.0554H36.834V12.9443Z" stroke="#FF0000" stroke-width="1.5" stroke-linecap="round" stroke-linejoin="round"/>
<path d="M11.7496 44.0001C15.0479 44.0001 17.7218 41.3263 17.7218 38.0279C17.7218 34.7295 15.0479 32.0557 11.7496 32.0557C8.4512 32.0557 5.77734 34.7295 5.77734 38.0279C5.77734 41.3263 8.4512 44.0001 11.7496 44.0001Z" stroke="#FF0000" stroke-width="1.5" stroke-linecap="round" stroke-linejoin="round"/>
<path d="M42.8062 44.0001C46.1046 44.0001 48.7784 41.3263 48.7784 38.0279C48.7784 34.7295 46.1046 32.0557 42.8062 32.0557C39.5078 32.0557 36.834 34.7295 36.834 38.0279C36.834 41.3263 39.5078 44.0001 42.8062 44.0001Z" stroke="#FF0000" stroke-width="1.5" stroke-linecap="round" stroke-linejoin="round"/>
</svg>
